<svg xmlns="http://www.w3.org/2000/svg" width="291.309" height="75.684" viewBox="0 0 291.309 75.684"><g id="svgGroup" stroke-linecap="round" fill-rule="evenodd" font-size="9pt" stroke="none" stroke-width="0.25mm" fill="#91d06c" style="stroke-width:0.25mm;"><path d="M 58.496 17.774 L 58.496 57.861 Q 58.496 61.133 57.666 63.745 Q 56.836 66.358 55.469 68.335 Q 54.102 70.313 52.295 71.704 Q 50.488 73.096 48.511 73.975 Q 46.533 74.854 44.507 75.269 Q 42.481 75.684 40.674 75.684 L 17.774 75.684 L 17.774 62.988 L 40.674 62.988 Q 43.262 62.988 44.531 61.67 Q 45.801 60.352 45.801 57.861 L 45.801 17.774 Q 45.801 15.283 44.531 13.989 Q 43.262 12.695 40.674 12.695 L 17.774 12.695 Q 15.43 12.695 14.063 14.136 Q 12.695 15.576 12.695 17.774 L 12.695 34.961 Q 12.695 37.451 14.014 38.77 Q 15.332 40.088 17.871 40.088 L 40.674 40.088 L 40.674 52.783 L 17.774 52.783 Q 15.967 52.783 13.965 52.368 Q 11.963 51.953 9.985 51.074 Q 8.008 50.195 6.201 48.804 Q 4.395 47.412 3.027 45.435 Q 1.66 43.457 0.83 40.845 Q 0 38.233 0 34.961 L 0 17.774 Q 0 15.967 0.415 13.965 Q 0.83 11.963 1.709 9.985 Q 2.588 8.008 3.98 6.201 Q 5.371 4.395 7.349 3.027 Q 9.326 1.66 11.914 0.83 Q 14.502 0 17.774 0 L 40.674 0 Q 42.481 0 44.507 0.415 Q 46.533 0.83 48.511 1.709 Q 50.488 2.588 52.295 3.98 Q 54.102 5.371 55.469 7.349 Q 56.836 9.326 57.666 11.914 Q 58.496 14.502 58.496 17.774 Z M 188.086 17.774 L 188.086 52.783 L 175.391 52.783 L 175.391 17.774 Q 175.391 15.283 174.072 13.989 Q 172.754 12.695 170.166 12.695 L 153.662 12.695 L 153.662 52.783 L 140.967 52.783 L 140.967 6.299 Q 140.967 4.981 141.455 3.833 Q 141.943 2.686 142.822 1.831 Q 143.701 0.977 144.873 0.488 Q 146.045 0 147.363 0 L 170.264 0 Q 172.9 0 175.928 0.928 Q 178.955 1.856 181.69 3.906 L 181.69 0 L 198.877 0 Q 200.684 0 202.686 0.415 Q 204.688 0.83 206.665 1.709 Q 208.643 2.588 210.449 3.98 Q 212.256 5.371 213.623 7.349 Q 214.99 9.326 215.82 11.914 Q 216.65 14.502 216.65 17.774 L 216.65 52.783 L 203.955 52.783 L 203.955 17.774 Q 203.955 15.283 202.71 13.989 Q 201.465 12.695 198.877 12.695 L 187.451 12.695 Q 188.086 15.039 188.086 17.774 Z M 277.832 0 L 291.309 0 Q 289.16 6.69 286.279 13.184 Q 283.399 19.678 279.663 25.562 Q 275.928 31.445 271.314 36.45 Q 266.699 41.455 261.108 45.093 Q 255.518 48.731 248.95 50.806 Q 242.383 52.881 234.717 52.881 Q 233.399 52.881 232.227 52.393 Q 231.055 51.904 230.176 51.05 Q 229.297 50.195 228.809 49.048 Q 228.32 47.9 228.32 46.582 L 228.32 0 L 241.016 0 L 241.016 39.697 Q 245.654 39.697 249.927 37.695 Q 254.199 35.693 258.008 32.398 Q 261.816 29.102 265.064 24.902 Q 268.311 20.703 270.85 16.284 Q 273.389 11.865 275.171 7.617 Q 276.953 3.369 277.832 0 Z M 116.309 0 L 116.309 12.695 L 87.744 12.695 Q 85.156 12.695 83.838 13.989 Q 82.52 15.283 82.52 17.774 L 82.52 52.783 L 69.824 52.783 L 69.824 17.774 Q 69.824 14.502 70.654 11.914 Q 71.484 9.326 72.876 7.349 Q 74.268 5.371 76.074 3.98 Q 77.881 2.588 79.858 1.709 Q 81.836 0.83 83.862 0.415 Q 85.889 0 87.647 0 L 116.309 0 Z M 131.055 46.387 Q 131.055 47.705 130.542 48.853 Q 130.029 50 129.175 50.855 Q 128.32 51.709 127.173 52.197 Q 126.025 52.686 124.756 52.686 Q 123.438 52.686 122.29 52.197 Q 121.143 51.709 120.288 50.855 Q 119.434 50 118.945 48.853 Q 118.457 47.705 118.457 46.387 Q 118.457 45.117 118.945 43.97 Q 119.434 42.822 120.288 41.968 Q 121.143 41.113 122.29 40.601 Q 123.438 40.088 124.756 40.088 Q 126.025 40.088 127.173 40.601 Q 128.32 41.113 129.175 41.968 Q 130.029 42.822 130.542 43.97 Q 131.055 45.117 131.055 46.387 Z" vector-effect="non-scaling-stroke"/></g></svg>