<svg xmlns="http://www.w3.org/2000/svg" width="291.309" height="75.684" viewBox="0 0 291.309 75.684"><path id="svgGroup" fill="#91d06c" fill-rule="evenodd" stroke="none" stroke-linecap="round" stroke-width=".945" d="M58.496 17.774v40.087q0 3.272-.83 5.884t-2.197 4.59-3.174 3.369-3.784 2.271q-1.978.879-4.004 1.294t-3.833.415h-22.9V62.988h22.9q2.588 0 3.857-1.318t1.27-3.809V17.774q0-2.491-1.27-3.785-1.269-1.294-3.857-1.294h-22.9q-2.344 0-3.711 1.441-1.368 1.44-1.368 3.638v17.187q0 2.49 1.319 3.809t3.857 1.318h22.803v12.695h-22.9q-1.807 0-3.809-.415t-3.98-1.294-3.784-2.27q-1.806-1.392-3.174-3.369T.83 40.845Q0 38.233 0 34.961V17.774q0-1.807.415-3.809t1.294-3.98T3.98 6.201t3.369-3.174T11.914.83t5.86-.83h22.9q1.807 0 3.833.415t4.004 1.294q1.977.879 3.784 2.271t3.174 3.369 2.197 4.565.83 5.86m129.59 0v35.009h-12.695V17.774q0-2.491-1.319-3.785t-3.906-1.294h-16.504v40.088h-12.695V6.299q0-1.318.488-2.466.488-1.147 1.367-2.002t2.051-1.343 2.49-.488h22.901q2.636 0 5.664.928t5.762 2.978V0h17.187q1.807 0 3.809.415t3.979 1.294q1.978.879 3.784 2.271 1.807 1.391 3.174 3.369t2.197 4.565.83 5.86v35.009h-12.695V17.774q0-2.491-1.245-3.785t-3.833-1.294h-11.426q.635 2.344.635 5.079M277.832 0h13.477q-2.149 6.69-5.03 13.184-2.88 6.494-6.616 12.378-3.735 5.883-8.349 10.888t-10.206 8.643q-5.59 3.638-12.158 5.713t-14.233 2.075q-1.318 0-2.49-.488-1.172-.489-2.051-1.343t-1.367-2.002q-.489-1.148-.489-2.466V0h12.696v39.697q4.638 0 8.911-2.002t8.081-5.297q3.808-3.296 7.056-7.496 3.247-4.199 5.786-8.618t4.321-8.667T277.832 0M116.309 0v12.695H87.744q-2.588 0-3.906 1.294t-1.318 3.785v35.009H69.824V17.774q0-3.272.83-5.86t2.222-4.565q1.392-1.978 3.198-3.369t3.784-2.271T83.862.415Q85.889 0 87.647 0Zm14.746 46.387q0 1.318-.513 2.466-.513 1.147-1.367 2.002t-2.002 1.342q-1.148.489-2.417.489-1.318 0-2.466-.489-1.147-.488-2.002-1.342t-1.343-2.002-.488-2.466q0-1.27.488-2.417.489-1.148 1.343-2.002.855-.855 2.002-1.367 1.148-.513 2.466-.513 1.269 0 2.417.513 1.147.512 2.002 1.367t1.367 2.002q.513 1.147.513 2.417" font-size="12" style="stroke-width:.25mm" vector-effect="non-scaling-stroke"/></svg>